<?xml version="1.0" encoding="UTF-8"?> <svg xmlns="http://www.w3.org/2000/svg" width="207" height="36" fill="none" viewBox="0 0 207 36"><path fill="#423C35" d="M118.164 11.954l.612-.477c-2.396-3.156-7.435-4.468-11.606-3.074-4.46 1.516-7.352 5.739-7.228 10.494.124 4.633 3.346 8.65 7.848 9.92 4.46 1.23 8.879-.573 10.986-3.32-1.157-.86-2.272-1.721-3.387-2.582-3.676 2.582-6.897 2.541-9.375-.123-2.148-2.255-2.231-5.863-.207-8.281a6.247 6.247 0 0 1 3.924-2.214c2.189-.369 4.047.37 5.658 1.845.917-.742 1.834-1.456 2.774-2.188h.001zM147.191 14.552V9.018c0-.574.206-.738.743-.697.95.04 1.941.04 2.891 0 .579-.041.785.164.785.738-.041 3.525-.041 7.01 0 10.535 0 2.747 2.106 5.002 4.791 5.288a5.427 5.427 0 0 0 5.906-4.058c.124-.533.165-1.107.165-1.68 0-1.103.005-2.205.009-3.31v-.008c.01-2.219.019-4.443-.009-6.685 0-.656.165-.902.868-.861.95.04 1.941.04 2.891 0 .413 0 .619.082.619.533-.014 1.326-.004 2.647.005 3.968.018 2.638.036 5.27-.129 7.92-.289 4.796-4.625 8.486-9.623 8.609-4.708.082-9.086-3.485-9.706-8.076-.192-1.477-.202-2.953-.211-4.441a73.191 73.191 0 0 0-.036-2.241h.041zM86.933 24.227V9.305c0-.5 0-.745.123-.867.12-.117.358-.117.826-.117.305 0 .605.004.903.009.592.009 1.178.018 1.782-.01.62-.04.785.165.785.78-.028 3.06-.019 6.121-.01 9.182.005 1.53.01 3.061.01 4.592v5.288c0 .533-.166.697-.702.697a126.391 126.391 0 0 0-5.576 0c-.537 0-.743-.287-.95-.656a2663.318 2663.318 0 0 0-6.4-10.308l-2.438-3.917-.036-.053c-.149-.223-.277-.416-.584-.644 0 .123-.01.236-.02.348-.01.113-.021.226-.021.349v13.897c0 .984 0 .984-1.033.984-.304 0-.604-.005-.902-.01a29.144 29.144 0 0 0-1.782.01c-.579.04-.744-.164-.744-.738V9.1c0-.574.165-.78.785-.78 1.693.042 3.387.042 5.08 0 .537 0 .867.165 1.115.616 1.509 2.44 3.027 4.892 4.546 7.343l.005.007c1.515 2.445 3.03 4.89 4.535 7.326.083.122.155.235.227.347.073.114.145.226.228.35.124-.082.206-.082.248-.082zM206.21 8.28c.62 0 .826.205.785.82a33.49 33.49 0 0 0 0 2.87c0 .491-.165.655-.661.655-.867-.02-1.724-.02-2.581-.02s-1.714 0-2.582-.02c-.66 0-.826.204-.826.819.028 3.11.019 6.2.01 9.298v.014c-.005 1.553-.01 3.108-.01 4.667 0 .155.002.293.003.416.006.522.009.773-.117.892-.116.11-.343.104-.781.094a22.062 22.062 0 0 0-.55-.008c-.246 0-.497-.005-.75-.01a21.064 21.064 0 0 0-1.522.01c-.743.082-.908-.246-.908-.902.027-3.17.018-6.34.009-9.51-.005-1.586-.009-3.17-.009-4.756 0-.512 0-.769-.129-.897s-.388-.128-.904-.128h-4.873c-.537 0-.785-.123-.744-.697.042-.984.042-1.968 0-2.951 0-.533.207-.697.702-.697 2.767.04 5.534.04 8.301.04h8.137zM127.16 9.1v9.428c0 1.611.01 3.212.021 4.797v.021c.01 1.554.02 3.092.02 4.611 0 .492.083.738.661.738h11.234c.454 0 .619-.164.619-.615a37.425 37.425 0 0 1 0-3.034c.042-.614-.206-.779-.826-.779-1.032.021-2.075.021-3.123.021s-2.101 0-3.154.02c-.62.041-.826-.163-.826-.778.027-1.12.018-2.241.009-3.362-.005-.56-.009-1.12-.009-1.68V9.14c0-.445 0-.67-.114-.785-.117-.117-.354-.117-.836-.117-.317 0-.634.004-.95.009-.634.009-1.267.018-1.9-.01-.661-.04-.826.247-.826.862zM54.924 18.528V9.1c0-.615.165-.861.826-.82.95.04 1.941.04 2.891 0 .702-.041.95.164.909.902a528.29 528.29 0 0 0-.01 7.628v.011c.005 1.276.01 2.555.01 3.839v7.379c0 .615-.165.82-.785.779a37.987 37.987 0 0 0-3.056 0c-.62.04-.826-.164-.826-.779.062-2.399.054-4.774.046-7.144v-.002c-.002-.789-.005-1.577-.005-2.365zM180.81 27.957v-9.429c0-.79-.003-1.578-.005-2.365-.008-2.354-.016-4.697.046-7.063 0-.656-.206-.861-.867-.82-.95.04-1.941.04-2.891 0-.537 0-.702.164-.702.697v5.698c0 1.49.004 2.977.009 4.462.009 2.965.018 5.925-.009 8.902 0 .615.165.82.784.779a31.161 31.161 0 0 1 2.768 0c.66.04.867-.205.867-.861z"></path><path fill="#fff" d="M0 19.37C0 9.776 7.021 1.7 16.603.224c10.656-1.64 20.774 5.862 22.22 16.52.124.82.165 1.64.165 2.46 0 .82-.454 1.312-1.156 1.353-.661 0-1.157-.492-1.24-1.27-.164-1.394-.247-2.83-.577-4.14C34.28 8.26 28.374 3.257 21.353 2.52 12.266 1.537 3.965 7.727 2.602 16.746c-1.033 6.805 1.446 12.34 6.939 16.48.206.164.454.328.702.492.66.491.826 1.188.413 1.762-.413.574-1.074.697-1.735.246-1.858-1.189-3.47-2.623-4.79-4.345C1.403 27.814 0 23.838 0 19.369z"></path><path fill="#fff" d="M32.876 19.328c-.083-7.173-5.824-12.995-13.051-13.159-1.157-.04-1.818-.902-1.322-1.762.289-.492.702-.615 1.239-.615 3.882.04 7.31 1.352 10.201 3.935 3.387 2.993 5.204 6.805 5.287 11.274.165 8.608-6.36 15.044-13.96 15.864-2.313.246-4.502 0-6.69-.697-.62-.204-.95-.614-.91-1.27.042-.615.455-.984 1.033-1.066.248-.041.578.04.826.123 7.6 2.255 15.323-2.214 17.016-9.92.166-.862.207-1.805.33-2.707z"></path><path fill="#fff" d="M19.535 7.563c4.75.164 8.26 2.296 10.573 6.436.29.492.372 1.025-.082 1.435-.29.246-.826.451-1.198.41-.33-.041-.702-.45-.908-.779-1.57-2.787-3.924-4.468-7.146-5.001-5.286-.861-10.531 3.402-10.78 8.69a10.126 10.126 0 0 0 .992 4.92c.29.615.124 1.189-.372 1.558-.495.328-.99.287-1.445-.082-.165-.123-.29-.37-.413-.574C5.163 17.279 9.87 8.67 18.007 7.646c.537-.042 1.033-.042 1.528-.083z"></path><path fill="#fff" d="M19.535 27.404a8.115 8.115 0 0 1-8.136-7.747c-.041-.82.413-1.394 1.115-1.435.661-.041 1.198.41 1.24 1.23.165 2.336 1.238 4.058 3.386 5.083 3.345 1.558 7.352-.533 7.971-4.182.041-.328.083-.697.124-1.025.083-.655.578-1.106 1.157-1.106.619 0 1.197.492 1.197 1.147-.041.78-.124 1.558-.33 2.296-.95 3.403-4.13 5.74-7.724 5.74z"></path><path fill="#F76E1E" d="M0 19.37C0 9.776 7.021 1.7 16.603.224c10.656-1.64 20.774 5.862 22.22 16.52.124.82.165 1.64.165 2.46 0 .82-.454 1.312-1.156 1.353-.661 0-1.157-.492-1.24-1.27-.164-1.394-.247-2.83-.577-4.14C34.28 8.26 28.374 3.257 21.353 2.52 12.266 1.537 3.965 7.727 2.602 16.746c-1.033 6.805 1.446 12.34 6.939 16.48.206.164.454.328.702.492.66.491.826 1.188.413 1.762-.413.574-1.074.697-1.735.246-1.858-1.189-3.47-2.623-4.79-4.345C1.403 27.814 0 23.838 0 19.369z"></path><path fill="#F76E1E" d="M32.876 19.328c-.083-7.173-5.824-12.995-13.051-13.159-1.157-.04-1.818-.902-1.322-1.762.289-.492.702-.615 1.239-.615 3.882.04 7.31 1.352 10.201 3.935 3.387 2.993 5.204 6.805 5.287 11.274.165 8.608-6.36 15.044-13.96 15.864-2.313.246-4.502 0-6.69-.697-.62-.204-.95-.614-.91-1.27.042-.615.455-.984 1.033-1.066.248-.041.578.04.826.123 7.6 2.255 15.323-2.214 17.016-9.92.166-.862.207-1.805.33-2.707z"></path><path fill="#F76E1E" d="M19.535 7.563c4.75.164 8.26 2.296 10.573 6.436.29.492.372 1.025-.082 1.435-.29.246-.826.451-1.198.41-.33-.041-.702-.45-.908-.779-1.57-2.787-3.924-4.468-7.146-5.001-5.286-.861-10.531 3.402-10.78 8.69a10.126 10.126 0 0 0 .992 4.92c.29.615.124 1.189-.372 1.558-.495.328-.99.287-1.445-.082-.165-.123-.29-.37-.413-.574C5.163 17.279 9.87 8.67 18.007 7.646c.537-.042 1.033-.042 1.528-.083z"></path><path fill="#F76E1E" d="M19.535 27.404a8.115 8.115 0 0 1-8.136-7.747c-.041-.82.413-1.394 1.115-1.435.661-.041 1.198.41 1.24 1.23.165 2.336 1.238 4.058 3.386 5.083 3.345 1.558 7.352-.533 7.971-4.182.041-.328.083-.697.124-1.025.083-.655.578-1.106 1.157-1.106.619 0 1.197.492 1.197 1.147-.041.78-.124 1.558-.33 2.296-.95 3.403-4.13 5.74-7.724 5.74z"></path></svg> 